<?xml version="1.0" standalone="no"?>
<!DOCTYPE svg PUBLIC "-//W3C//DTD SVG 20010904//EN"
 "http://www.w3.org/TR/2001/REC-SVG-20010904/DTD/svg10.dtd">
<svg version="1.0" xmlns="http://www.w3.org/2000/svg"
 width="310.000000pt" height="310.000000pt" viewBox="0 0 310.000000 310.000000"
 preserveAspectRatio="xMidYMid meet">
<metadata>
Created by potrace 1.11, written by Peter Selinger 2001-2013
</metadata>
<g transform="translate(0.000000,310.000000) scale(0.100000,-0.100000)"
fill="#000000" stroke="none">
<path d="M468 2441 c-13 -10 -27 -20 -33 -22 -5 -2 -40 -21 -77 -42 l-68 -39
0 -548 0 -549 67 -39 c38 -22 86 -49 108 -62 l40 -22 102 59 102 58 1 303 c0
177 4 302 9 302 5 0 53 -25 106 -56 l97 -56 104 60 104 60 1 -31 c0 -18 1
-262 1 -544 l1 -512 105 -61 105 -61 106 62 105 62 31 -18 c16 -10 50 -29 75
-43 25 -14 54 -31 65 -38 31 -22 53 -17 139 33 125 72 114 39 112 312 0 132 1
238 4 237 3 -2 51 -29 107 -60 l103 -58 177 102 c98 57 189 110 203 119 14 9
30 18 35 21 6 3 56 31 113 64 l102 58 0 247 -1 246 -261 150 c-144 83 -287
164 -317 182 l-56 31 -110 -64 c-60 -35 -117 -68 -125 -74 -8 -5 -67 -38 -130
-75 -63 -36 -135 -77 -160 -91 -25 -14 -55 -32 -67 -40 -12 -8 -26 -14 -30
-14 -4 0 -8 78 -8 173 l1 172 -41 26 c-22 14 -70 42 -107 62 l-66 36 -208
-120 -208 -121 -31 16 c-16 9 -43 24 -60 34 -81 48 -312 178 -327 184 -10 4
-26 0 -40 -11z m1828 -643 c51 -29 94 -56 94 -60 0 -3 -12 -13 -27 -21 -16 -8
-61 -33 -102 -57 -70 -41 -74 -42 -100 -28 -14 9 -49 29 -77 44 -110 62 -110
53 -3 116 52 31 100 56 107 57 8 1 56 -23 108 -51z"/>
</g>
</svg>
