<?xml version="1.0" encoding="utf-8"?>
<!-- Generator: Adobe Illustrator 18.0.0, SVG Export Plug-In . SVG Version: 6.00 Build 0)  -->
<!DOCTYPE svg PUBLIC "-//W3C//DTD SVG 1.1//EN" "http://www.w3.org/Graphics/SVG/1.1/DTD/svg11.dtd">
<svg version="1.1" id="Camada_1" xmlns="http://www.w3.org/2000/svg" xmlns:xlink="http://www.w3.org/1999/xlink" x="0px" y="0px"
	 viewBox="0 0 63.6 45.6" enable-background="new 0 0 63.6 45.6" xml:space="preserve">
<polygon fill="#98439E" points="5.3,12.3 5.3,33.6 10.6,30.6 10.6,9.2 "/>
<polygon fill="#6A2990" points="21.2,42.5 26.5,45.6 26.5,12.3 21.2,9.2 "/>
<polygon fill="#552173" points="0,30.5 5.3,33.6 5.3,12.3 5.3,12.2 5.3,12.2 10.6,15.3 10.6,15.3 15.9,18.3 15.9,12.2 0,3.1 "/>
<polygon fill="#6A2990" points="26.5,0 15.9,6.1 5.3,0 0,3.1 15.9,12.2 31.8,3 "/>
<polygon fill="#8D4CA2" points="15.9,12.2 15.9,18.3 21.2,15.3 21.2,15.3 26.5,12.2 26.5,45.6 31.8,42.5 31.8,3 "/>
<polygon fill="#A6D514" points="37.1,27.2 37.1,33.3 37.1,33.4 37.1,39.5 37.1,39.5 37.1,45.5 37.1,45.6 37.1,45.5 42.4,42.5 
	42.4,42.5 42.4,42.5 42.4,36.4 42.4,36.4 42.4,30.3 42.4,30.3 42.4,24.2 "/>
<polygon fill="#80C41C" points="53,12 53,12 47.7,8.9 42.4,12 42.4,12 37.1,15 37.1,21.1 42.4,18.1 42.4,18.1 47.7,15 53,18.1 
	53,18.1 58.3,21.1 58.3,15 "/>
<polygon fill="#A6D514" points="47.7,9.1 47.7,9.1 42.4,12.1 42.4,12.1 37.1,15.2 37.1,21.3 42.4,18.3 42.4,18.3 47.7,15.2 "/>
<polygon fill="#B3DB11" points="31.8,12 37.1,15 47.7,8.9 47.7,8.9 47.7,8.9 47.7,8.9 47.7,8.9 58.3,15 63.6,12 47.7,2.8 "/>
<polygon fill="#80C41C" points="31.8,42.5 37.1,45.5 37.1,27.3 47.7,33.4 47.7,27.2 37.1,21.1 37.1,15 31.8,12 "/>
<polygon fill="#CCE70B" points="58.3,15 58.3,21.1 47.7,27.2 47.7,33.4 63.6,24.2 63.6,12 "/>
<polygon fill="#99CF16" points="58.3,21.1 53,18.1 47.7,21.1 42.4,18.1 37.1,21.1 47.7,27.2 "/>
</svg>
